<svg width="779" height="459" viewBox="0 0 779 459" fill="none" xmlns="http://www.w3.org/2000/svg">
<g id="undraw_Personal_notebook_re_d7dc 1">
<path id="bg" opacity="0.3" d="M417.911 71.2623C377.464 71.3209 338.533 58.8983 301.296 45.098C264.058 31.2977 227.108 15.8441 187.414 9.29571C161.885 5.08644 132.856 5.47336 112.901 20.7569C93.6923 35.46 88.13 59.7952 85.4462 82.2779C83.4279 99.1912 82.4973 116.943 90.0562 132.414C95.3047 143.154 104.287 152.006 110.617 162.242C132.715 197.851 119.426 243.338 97.9507 279.774C87.8811 296.869 76.0854 313.254 68.4723 331.328C60.8593 349.402 57.7372 369.898 65.5018 387.737C73.196 405.419 90.5757 418.252 109.227 427.016C147.103 444.85 191.201 448.672 234.115 450.143C329.108 453.409 424.284 446.749 519.207 440.089C554.334 437.627 589.618 435.147 624.021 428.013C643.121 424.055 662.789 418.181 676.333 405.307C693.523 388.963 697.04 362.276 684.53 343.094C663.552 310.921 608.237 304.853 593.195 270.042C584.9 250.877 592.053 228.899 602.588 210.426C625.184 170.79 664.077 135.287 664.732 90.9544C665.181 60.5105 644.955 30.8111 614.747 17.5794C583.082 3.72048 539.909 7.28488 517.724 33.115C494.912 59.7249 453.622 71.2212 417.911 71.2623Z" fill="#379683"/>
<g id="page-back">
<path id="Vector" d="M497.727 446.395C496.576 446.394 495.445 446.089 494.445 445.509L304.66 336.073C303.118 335.181 301.985 333.701 301.511 331.958C301.036 330.215 301.259 328.352 302.13 326.776L451.609 57.1097C452.041 56.3297 452.62 55.6441 453.312 55.0922C454.004 54.5403 454.796 54.1329 455.642 53.8932C456.488 53.6535 457.373 53.5863 458.245 53.6953C459.117 53.8043 459.959 54.0875 460.723 54.5286L650.507 163.965C652.05 164.857 653.183 166.337 653.657 168.079C654.132 169.822 653.91 171.685 653.039 173.261L503.559 442.927C503.129 443.709 502.551 444.396 501.858 444.948C501.166 445.5 500.373 445.907 499.526 446.144C498.94 446.31 498.335 446.395 497.727 446.395Z" fill="#05386B"/>
<path id="Vector_2" d="M446.316 67.6747L445.553 69.0505L646.129 184.71L646.892 183.334L446.316 67.6747Z" fill="white"/>
<path id="Vector_3" d="M432.588 92.4399L431.826 93.8158L632.401 209.475L633.164 208.099L432.588 92.4399Z" fill="white"/>
<path id="Vector_4" d="M418.861 117.205L418.098 118.581L618.674 234.24L619.436 232.864L418.861 117.205Z" fill="white"/>
<path id="Vector_5" d="M405.133 141.97L404.37 143.346L604.946 259.005L605.709 257.63L405.133 141.97Z" fill="white"/>
<path id="Vector_6" d="M391.405 166.736L390.643 168.112L591.218 283.771L591.981 282.395L391.405 166.736Z" fill="white"/>
<path id="Vector_7" d="M377.678 191.501L376.915 192.877L577.491 308.536L578.253 307.16L377.678 191.501Z" fill="white"/>
<path id="Vector_8" d="M363.95 216.266L363.187 217.642L563.763 333.301L564.526 331.926L363.95 216.266Z" fill="white"/>
<path id="Vector_9" d="M350.222 241.032L349.46 242.407L550.035 358.067L550.798 356.691L350.222 241.032Z" fill="white"/>
<path id="Vector_10" d="M336.495 265.797L335.732 267.173L536.308 382.832L537.07 381.456L336.495 265.797Z" fill="white"/>
<path id="Vector_11" d="M322.767 290.562L322.004 291.938L522.58 407.597L523.343 406.221L322.767 290.562Z" fill="white"/>
<path id="Vector_12" d="M309.039 315.327L308.277 316.703L508.852 432.362L509.615 430.987L309.039 315.327Z" fill="white"/>
</g>
<g id="page-front">
<path id="Vector_13" d="M480.073 405.38C478.922 405.379 477.791 405.074 476.79 404.494L287.006 295.057C285.463 294.165 284.33 292.686 283.856 290.943C283.382 289.2 283.604 287.337 284.475 285.761L433.955 16.0944C434.387 15.3143 434.965 14.6288 435.657 14.0769C436.349 13.525 437.141 13.1176 437.987 12.8779C438.834 12.6382 439.718 12.5709 440.59 12.68C441.462 12.789 442.304 13.0722 443.069 13.5133L632.853 122.95C634.395 123.842 635.528 125.321 636.003 127.064C636.477 128.807 636.255 130.67 635.384 132.246L485.904 401.912C485.474 402.693 484.896 403.38 484.204 403.932C483.511 404.485 482.719 404.891 481.871 405.129C481.286 405.295 480.681 405.38 480.073 405.38Z" fill="#2F2E41"/>
<path id="Vector_14" d="M428.661 26.6593L427.899 28.0352L628.474 143.694L629.237 142.318L428.661 26.6593Z" fill="white"/>
<path id="Vector_15" d="M414.934 51.4246L414.171 52.8004L614.747 168.46L615.509 167.084L414.934 51.4246Z" fill="white"/>
<path id="Vector_16" d="M401.206 76.1899L400.443 77.5657L601.019 193.225L601.782 191.849L401.206 76.1899Z" fill="white"/>
<path id="Vector_17" d="M387.478 100.955L386.716 102.331L587.291 217.99L588.054 216.614L387.478 100.955Z" fill="white"/>
<path id="Vector_18" d="M373.751 125.72L372.988 127.096L573.564 242.755L574.326 241.38L373.751 125.72Z" fill="white"/>
<path id="Vector_19" d="M360.023 150.486L359.26 151.862L559.836 267.521L560.599 266.145L360.023 150.486Z" fill="white"/>
<path id="Vector_20" d="M346.295 175.251L345.533 176.627L546.108 292.286L546.871 290.91L346.295 175.251Z" fill="white"/>
<path id="Vector_21" d="M332.568 200.016L331.805 201.392L532.381 317.051L533.143 315.675L332.568 200.016Z" fill="white"/>
<path id="Vector_22" d="M318.84 224.782L318.077 226.157L518.653 341.817L519.415 340.441L318.84 224.782Z" fill="white"/>
<path id="Vector_23" d="M305.112 249.547L304.35 250.923L504.925 366.582L505.688 365.206L305.112 249.547Z" fill="white"/>
<path id="Vector_24" d="M291.385 274.312L290.622 275.688L491.198 391.347L491.96 389.971L291.385 274.312Z" fill="white"/>
</g>
<g id="notebook-cover">
<path id="Vector_25" d="M461.16 11H157.855V441.161H461.16C462.25 441.161 463.295 440.719 464.065 439.934C464.835 439.148 465.268 438.082 465.268 436.971V15.1899C465.268 14.0787 464.835 13.013 464.065 12.2272C463.295 11.4415 462.25 11 461.16 11ZM174.972 429.289C173.482 429.289 172.026 428.839 170.788 427.995C169.549 427.151 168.584 425.951 168.014 424.548C167.444 423.144 167.295 421.599 167.585 420.109C167.876 418.619 168.593 417.251 169.646 416.176C170.7 415.102 172.042 414.371 173.502 414.074C174.963 413.778 176.478 413.93 177.854 414.511C179.23 415.093 180.406 416.077 181.234 417.34C182.061 418.604 182.503 420.089 182.503 421.608C182.503 422.617 182.308 423.616 181.93 424.548C181.551 425.479 180.997 426.326 180.297 427.04C179.598 427.753 178.768 428.319 177.854 428.705C176.94 429.091 175.961 429.289 174.972 429.289ZM174.972 390.184C173.482 390.184 172.026 389.733 170.788 388.889C169.549 388.045 168.584 386.846 168.014 385.442C167.444 384.038 167.295 382.494 167.585 381.004C167.876 379.514 168.593 378.145 169.646 377.071C170.7 375.997 172.042 375.265 173.502 374.969C174.963 374.672 176.478 374.824 177.854 375.406C179.23 375.987 180.406 376.972 181.234 378.235C182.061 379.498 182.503 380.983 182.503 382.502C182.503 383.511 182.308 384.51 181.93 385.442C181.551 386.374 180.997 387.221 180.297 387.934C179.598 388.647 178.768 389.213 177.854 389.599C176.94 389.985 175.961 390.184 174.972 390.184ZM174.972 351.078C173.482 351.078 172.026 350.628 170.788 349.784C169.549 348.94 168.584 347.74 168.014 346.336C167.444 344.933 167.295 343.388 167.585 341.898C167.876 340.408 168.593 339.04 169.646 337.965C170.7 336.891 172.042 336.159 173.502 335.863C174.963 335.567 176.478 335.719 177.854 336.3C179.23 336.882 180.406 337.866 181.234 339.129C182.061 340.393 182.503 341.878 182.503 343.397C182.503 344.406 182.308 345.405 181.93 346.336C181.551 347.268 180.997 348.115 180.297 348.829C179.598 349.542 178.768 350.108 177.854 350.494C176.94 350.88 175.961 351.078 174.972 351.078ZM174.972 311.973C173.482 311.973 172.026 311.522 170.788 310.678C169.549 309.834 168.584 308.635 168.014 307.231C167.444 305.827 167.295 304.283 167.585 302.793C167.876 301.303 168.593 299.934 169.646 298.86C170.7 297.786 172.042 297.054 173.502 296.758C174.963 296.461 176.478 296.613 177.854 297.195C179.23 297.776 180.406 298.761 181.234 300.024C182.061 301.287 182.503 302.772 182.503 304.291C182.503 305.3 182.308 306.299 181.93 307.231C181.551 308.163 180.997 309.01 180.297 309.723C179.598 310.436 178.768 311.002 177.854 311.388C176.94 311.774 175.961 311.973 174.972 311.973ZM174.972 272.867C173.482 272.867 172.026 272.417 170.788 271.573C169.549 270.729 168.584 269.529 168.014 268.125C167.444 266.722 167.295 265.177 167.585 263.687C167.876 262.197 168.593 260.829 169.646 259.754C170.7 258.68 172.042 257.948 173.502 257.652C174.963 257.356 176.478 257.508 177.854 258.089C179.23 258.671 180.406 259.655 181.234 260.918C182.061 262.182 182.503 263.667 182.503 265.186C182.503 266.195 182.308 267.194 181.93 268.125C181.551 269.057 180.997 269.904 180.297 270.618C179.598 271.331 178.768 271.897 177.854 272.283C176.94 272.669 175.961 272.867 174.972 272.867ZM174.972 233.762C173.482 233.762 172.026 233.311 170.788 232.467C169.549 231.623 168.584 230.424 168.014 229.02C167.444 227.616 167.295 226.072 167.585 224.582C167.876 223.092 168.593 221.723 169.646 220.649C170.7 219.575 172.042 218.843 173.502 218.547C174.963 218.25 176.478 218.402 177.854 218.984C179.23 219.565 180.406 220.55 181.234 221.813C182.061 223.076 182.503 224.561 182.503 226.08C182.503 227.089 182.308 228.088 181.93 229.02C181.551 229.952 180.997 230.799 180.297 231.512C179.598 232.225 178.768 232.791 177.854 233.177C176.94 233.563 175.961 233.762 174.972 233.762ZM174.972 194.656C173.482 194.656 172.026 194.206 170.788 193.362C169.549 192.518 168.584 191.318 168.014 189.914C167.444 188.511 167.295 186.966 167.585 185.476C167.876 183.986 168.593 182.618 169.646 181.543C170.7 180.469 172.042 179.737 173.502 179.441C174.963 179.145 176.478 179.297 177.854 179.878C179.23 180.46 180.406 181.444 181.234 182.707C182.061 183.97 182.503 185.456 182.503 186.975C182.503 187.984 182.308 188.982 181.93 189.914C181.551 190.846 180.997 191.693 180.297 192.406C179.598 193.12 178.768 193.686 177.854 194.072C176.94 194.458 175.961 194.656 174.972 194.656ZM174.972 155.551C173.482 155.551 172.026 155.1 170.788 154.256C169.549 153.412 168.584 152.212 168.014 150.809C167.444 149.405 167.295 147.861 167.585 146.371C167.876 144.881 168.593 143.512 169.646 142.438C170.7 141.363 172.042 140.632 173.502 140.336C174.963 140.039 176.478 140.191 177.854 140.773C179.23 141.354 180.406 142.339 181.234 143.602C182.061 144.865 182.503 146.35 182.503 147.869C182.503 148.878 182.308 149.877 181.93 150.809C181.551 151.741 180.997 152.588 180.297 153.301C179.598 154.014 178.768 154.58 177.854 154.966C176.94 155.352 175.961 155.551 174.972 155.551ZM174.972 116.445C173.482 116.445 172.026 115.995 170.788 115.151C169.549 114.307 168.584 113.107 168.014 111.703C167.444 110.3 167.295 108.755 167.585 107.265C167.876 105.775 168.593 104.406 169.646 103.332C170.7 102.258 172.042 101.526 173.502 101.23C174.963 100.934 176.478 101.086 177.854 101.667C179.23 102.248 180.406 103.233 181.234 104.496C182.061 105.759 182.503 107.245 182.503 108.764C182.503 109.773 182.308 110.771 181.93 111.703C181.551 112.635 180.997 113.482 180.297 114.195C179.598 114.909 178.768 115.475 177.854 115.861C176.94 116.247 175.961 116.445 174.972 116.445ZM174.972 77.3397C173.482 77.3397 172.026 76.8892 170.788 76.0452C169.549 75.2011 168.584 74.0014 168.014 72.5978C167.444 71.1942 167.295 69.6498 167.585 68.1597C167.876 66.6697 168.593 65.3009 169.646 64.2267C170.7 63.1524 172.042 62.4208 173.502 62.1244C174.963 61.828 176.478 61.9801 177.854 62.5615C179.23 63.1429 180.406 64.1275 181.234 65.3907C182.061 66.6539 182.503 68.139 182.503 69.6583C182.503 70.667 182.308 71.6659 181.93 72.5978C181.551 73.5298 180.997 74.3766 180.297 75.0899C179.598 75.8032 178.768 76.369 177.854 76.755C176.94 77.1411 175.961 77.3397 174.972 77.3397ZM174.972 38.2342C173.482 38.2342 172.026 37.7837 170.788 36.9397C169.549 36.0956 168.584 34.8959 168.014 33.4923C167.444 32.0887 167.295 30.5442 167.585 29.0542C167.876 27.5641 168.593 26.1954 169.646 25.1212C170.7 24.0469 172.042 23.3153 173.502 23.0189C174.963 22.7225 176.478 22.8746 177.854 23.456C179.23 24.0374 180.406 25.022 181.234 26.2852C182.061 27.5484 182.503 29.0335 182.503 30.5528C182.503 31.5615 182.308 32.5604 181.93 33.4923C181.551 34.4243 180.997 35.2711 180.297 35.9844C179.598 36.6977 178.768 37.2635 177.854 37.6495C176.94 38.0355 175.961 38.2342 174.972 38.2342Z" fill="#05386B"/>
<path id="Vector_26" d="M157.855 34.7427C155.823 34.7427 138 34.6448 138 31.2511C138 27.8574 155.823 27.7595 157.855 27.7595V29.1561C147.358 29.1561 140.551 30.3547 139.455 31.2511C140.551 32.1475 147.358 33.346 157.855 33.346C168.329 33.346 175.129 32.1526 176.248 31.2572C175.716 30.8737 173.54 30.0696 167.705 29.5551L167.822 28.1639C177.71 29.0355 177.71 30.6452 177.71 31.2511C177.71 34.6448 159.887 34.7427 157.855 34.7427Z" fill="#2F2E41"/>
<path id="Vector_27" d="M157.855 73.1499C155.823 73.1499 138 73.052 138 69.6583C138 66.2646 155.823 66.1667 157.855 66.1667V67.5634C147.358 67.5634 140.551 68.7619 139.455 69.6583C140.551 70.5547 147.358 71.7533 157.855 71.7533C168.329 71.7533 175.129 70.5598 176.248 69.6645C175.716 69.2809 173.54 68.4769 167.705 67.9624L167.822 66.5712C177.71 67.4427 177.71 69.0525 177.71 69.6583C177.71 73.052 159.887 73.1499 157.855 73.1499Z" fill="#2F2E41"/>
<path id="Vector_28" d="M157.855 112.255C155.823 112.255 138 112.157 138 108.764C138 105.37 155.823 105.272 157.855 105.272V106.669C147.358 106.669 140.551 107.867 139.455 108.764C140.551 109.66 147.358 110.859 157.855 110.859C168.329 110.859 175.129 109.665 176.248 108.77C175.716 108.386 173.54 107.582 167.705 107.068L167.822 105.677C177.71 106.548 177.71 108.158 177.71 108.764C177.71 112.158 159.887 112.255 157.855 112.255Z" fill="#2F2E41"/>
<path id="Vector_29" d="M157.855 151.361C155.823 151.361 138 151.263 138 147.869C138 144.476 155.823 144.378 157.855 144.378V145.774C147.358 145.774 140.551 146.973 139.455 147.869C140.551 148.766 147.358 149.964 157.855 149.964C168.329 149.964 175.129 148.771 176.248 147.875C175.716 147.492 173.54 146.688 167.705 146.173L167.822 144.782C177.71 145.654 177.71 147.263 177.71 147.869C177.71 151.263 159.887 151.361 157.855 151.361Z" fill="#2F2E41"/>
<path id="Vector_30" d="M157.855 190.466C155.823 190.466 138 190.369 138 186.975C138 183.581 155.823 183.483 157.855 183.483V184.88C147.358 184.88 140.551 186.078 139.455 186.975C140.551 187.871 147.358 189.07 157.855 189.07C168.329 189.07 175.129 187.876 176.248 186.981C175.716 186.597 173.54 185.793 167.705 185.279L167.822 183.888C177.71 184.759 177.71 186.369 177.71 186.975C177.71 190.369 159.887 190.466 157.855 190.466Z" fill="#2F2E41"/>
<path id="Vector_31" d="M157.855 229.572C155.823 229.572 138 229.474 138 226.08C138 222.687 155.823 222.589 157.855 222.589V223.985C147.358 223.985 140.551 225.184 139.455 226.08C140.551 226.977 147.358 228.175 157.855 228.175C168.329 228.175 175.129 226.982 176.248 226.087C175.716 225.703 173.54 224.899 167.705 224.384L167.822 222.993C177.71 223.865 177.71 225.474 177.71 226.08C177.71 229.474 159.887 229.572 157.855 229.572Z" fill="#2F2E41"/>
<path id="Vector_32" d="M157.855 268.677C155.823 268.677 138 268.58 138 265.186C138 261.792 155.823 261.694 157.855 261.694V263.091C147.358 263.091 140.551 264.289 139.455 265.186C140.551 266.082 147.358 267.281 157.855 267.281C168.329 267.281 175.129 266.087 176.248 265.192C175.716 264.808 173.54 264.004 167.705 263.49L167.822 262.099C177.71 262.97 177.71 264.58 177.71 265.186C177.71 268.58 159.887 268.677 157.855 268.677Z" fill="#2F2E41"/>
<path id="Vector_33" d="M157.855 307.783C155.823 307.783 138 307.685 138 304.291C138 300.898 155.823 300.8 157.855 300.8V302.196C147.358 302.196 140.551 303.395 139.455 304.291C140.551 305.188 147.358 306.386 157.855 306.386C168.329 306.386 175.129 305.193 176.248 304.298C175.716 303.914 173.54 303.11 167.705 302.595L167.822 301.204C177.71 302.076 177.71 303.686 177.71 304.291C177.71 307.685 159.887 307.783 157.855 307.783Z" fill="#2F2E41"/>
<path id="Vector_34" d="M157.855 346.889C155.823 346.889 138 346.791 138 343.397C138 340.003 155.823 339.905 157.855 339.905V341.302C147.358 341.302 140.551 342.501 139.455 343.397C140.551 344.293 147.358 345.492 157.855 345.492C168.329 345.492 175.129 344.298 176.248 343.403C175.716 343.019 173.54 342.215 167.705 341.701L167.822 340.31C177.71 341.181 177.71 342.791 177.71 343.397C177.71 346.791 159.887 346.889 157.855 346.889Z" fill="#2F2E41"/>
<path id="Vector_35" d="M157.855 385.994C155.823 385.994 138 385.896 138 382.502C138 379.109 155.823 379.011 157.855 379.011V380.408C147.358 380.408 140.551 381.606 139.455 382.502C140.551 383.399 147.358 384.597 157.855 384.597C168.329 384.597 175.129 383.404 176.248 382.509C175.716 382.125 173.54 381.321 167.705 380.806L167.822 379.415C177.71 380.287 177.71 381.897 177.71 382.502C177.71 385.896 159.887 385.994 157.855 385.994Z" fill="#2F2E41"/>
<path id="Vector_36" d="M157.855 425.1C155.823 425.1 138 425.002 138 421.608C138 418.214 155.823 418.116 157.855 418.116V419.513C147.358 419.513 140.551 420.712 139.455 421.608C140.551 422.504 147.358 423.703 157.855 423.703C168.329 423.703 175.129 422.509 176.248 421.614C175.716 421.231 173.54 420.427 167.705 419.912L167.822 418.521C177.71 419.392 177.71 421.002 177.71 421.608C177.71 425.002 159.887 425.1 157.855 425.1Z" fill="#2F2E41"/>
<path id="Vector_37" d="M399.198 175.453H248.573C247.393 175.451 246.262 174.973 245.428 174.122C244.593 173.271 244.124 172.117 244.123 170.914V110.859C244.124 109.655 244.593 108.502 245.428 107.651C246.262 106.8 247.393 106.321 248.573 106.32H399.198C400.378 106.321 401.509 106.8 402.344 107.651C403.178 108.502 403.647 109.655 403.649 110.859V170.914C403.647 172.117 403.178 173.271 402.344 174.122C401.509 174.973 400.378 175.451 399.198 175.453Z" fill="white"/>
</g>
<g id="title-lines">
<path id="Vector_38" d="M343.056 126.92H304.715C303.807 126.92 302.936 126.552 302.294 125.897C301.652 125.242 301.292 124.354 301.292 123.428C301.292 122.502 301.652 121.614 302.294 120.959C302.936 120.305 303.807 119.937 304.715 119.937H343.056C343.964 119.937 344.835 120.305 345.477 120.959C346.119 121.614 346.479 122.502 346.479 123.428C346.479 124.354 346.119 125.242 345.477 125.897C344.835 126.552 343.964 126.92 343.056 126.92H343.056Z" fill="#2F2E41"/>
<path id="Vector_39" d="M364.281 144.378H283.491C282.583 144.378 281.712 144.01 281.07 143.355C280.428 142.7 280.067 141.812 280.067 140.886C280.067 139.96 280.428 139.072 281.07 138.417C281.712 137.763 282.583 137.395 283.491 137.395H364.281C365.189 137.395 366.059 137.763 366.701 138.417C367.343 139.072 367.704 139.96 367.704 140.886C367.704 141.812 367.343 142.7 366.701 143.355C366.059 144.01 365.189 144.378 364.281 144.378Z" fill="#2F2E41"/>
<path id="Vector_40" d="M364.281 161.836H283.491C282.583 161.836 281.712 161.468 281.07 160.813C280.428 160.158 280.067 159.27 280.067 158.344C280.067 157.418 280.428 156.53 281.07 155.875C281.712 155.22 282.583 154.852 283.491 154.852H364.281C365.189 154.852 366.059 155.22 366.701 155.875C367.343 156.53 367.704 157.418 367.704 158.344C367.704 159.27 367.343 160.158 366.701 160.813C366.059 161.468 365.189 161.836 364.281 161.836Z" fill="#2F2E41"/>
</g>
</g>
</svg>
